<svg width="876" height="250" viewBox="0 0 876 250" fill="none" xmlns="http://www.w3.org/2000/svg">
<path d="M7 59.6H59.2C65.8667 59.6 71.9333 60.4 77.4 62C83 63.4667 87.7333 65.7333 91.6 68.8C95.6 71.7333 98.6667 75.4667 100.8 80C103.067 84.4 104.2 89.6 104.2 95.6C104.2 99.8667 103.667 103.533 102.6 106.6C101.533 109.533 100.4 112 99.2 114C97.7333 116.4 96.0667 118.4 94.2 120C97.1333 121.867 99.8 124.267 102.2 127.2C104.2 129.733 106 132.933 107.6 136.8C109.333 140.667 110.2 145.4 110.2 151C110.2 157.4 109.067 163.2 106.8 168.4C104.533 173.6 101.267 178.067 97 181.8C92.8667 185.4 87.7333 188.2 81.6 190.2C75.6 192.067 68.8667 193 61.4 193H7V59.6ZM53 161.6C63.1333 161.6 68.2 157.733 68.2 150C68.2 142.267 63.1333 138.4 53 138.4H48.2V161.6H53ZM63 100.2C63 94.0667 59.6667 91 53 91H48.2V109.4H53C59.6667 109.4 63 106.333 63 100.2ZM55.8 177C67.5333 177 76.2 174.467 81.8 169.4C87.4 164.333 90.2 157.6 90.2 149.2C90.2 143.733 89 139.4 86.6 136.2C84.3333 132.867 81.8667 130.267 79.2 128.4C75.8667 126.267 72.2 124.8 68.2 124C71.4 123.067 74.2667 121.6 76.8 119.6C79.0667 117.867 81.0667 115.533 82.8 112.6C84.6667 109.533 85.6 105.667 85.6 101C85.6 92.6 82.9333 86.2667 77.6 82C72.2667 77.7333 65 75.6 55.8 75.6H27V177H55.8ZM32.2 172.2V126.4H55.6C59.7333 126.4 63.5333 126.867 67 127.8C70.6 128.6 73.7333 129.933 76.4 131.8C79.0667 133.533 81.1333 135.867 82.6 138.8C84.2 141.733 85 145.2 85 149.2C85 157.333 82.2667 163.2 76.8 166.8C71.4667 170.4 64.4 172.2 55.6 172.2H32.2ZM32.2 121.6V80.4H55.8C64.4667 80.4 70.6667 82.3333 74.4 86.2C78.2667 89.9333 80.2 94.8667 80.2 101C80.2 107.133 78.2667 112.133 74.4 116C70.6667 119.733 64.4667 121.6 55.8 121.6H32.2ZM157.733 59.6H189.733L240.333 193H198.333L193.933 181H153.533L149.133 193H107.133L157.733 59.6ZM182.733 151.6L173.733 128.2L164.733 151.6H182.733ZM136.933 177L140.733 167H206.733L210.533 177H216.133L177.533 75.6H169.933L131.333 177H136.933ZM173.733 80.4L204.933 162.2H142.533L173.733 80.4ZM243.328 59.6H295.528C302.195 59.6 308.261 60.4 313.728 62C319.328 63.4667 324.061 65.7333 327.928 68.8C331.928 71.7333 334.995 75.4667 337.128 80C339.395 84.4 340.528 89.6 340.528 95.6C340.528 99.8667 339.995 103.533 338.928 106.6C337.861 109.533 336.728 112 335.528 114C334.061 116.4 332.395 118.4 330.528 120C333.461 121.867 336.128 124.267 338.528 127.2C340.528 129.733 342.328 132.933 343.928 136.8C345.661 140.667 346.528 145.4 346.528 151C346.528 157.4 345.395 163.2 343.128 168.4C340.861 173.6 337.595 178.067 333.328 181.8C329.195 185.4 324.061 188.2 317.928 190.2C311.928 192.067 305.195 193 297.728 193H243.328V59.6ZM289.328 161.6C299.461 161.6 304.528 157.733 304.528 150C304.528 142.267 299.461 138.4 289.328 138.4H284.528V161.6H289.328ZM299.328 100.2C299.328 94.0667 295.995 91 289.328 91H284.528V109.4H289.328C295.995 109.4 299.328 106.333 299.328 100.2ZM292.128 177C303.861 177 312.528 174.467 318.128 169.4C323.728 164.333 326.528 157.6 326.528 149.2C326.528 143.733 325.328 139.4 322.928 136.2C320.661 132.867 318.195 130.267 315.528 128.4C312.195 126.267 308.528 124.8 304.528 124C307.728 123.067 310.595 121.6 313.128 119.6C315.395 117.867 317.395 115.533 319.128 112.6C320.995 109.533 321.928 105.667 321.928 101C321.928 92.6 319.261 86.2667 313.928 82C308.595 77.7333 301.328 75.6 292.128 75.6H263.328V177H292.128ZM268.528 172.2V126.4H291.928C296.061 126.4 299.861 126.867 303.328 127.8C306.928 128.6 310.061 129.933 312.728 131.8C315.395 133.533 317.461 135.867 318.928 138.8C320.528 141.733 321.328 145.2 321.328 149.2C321.328 157.333 318.595 163.2 313.128 166.8C307.795 170.4 300.728 172.2 291.928 172.2H268.528ZM268.528 121.6V80.4H292.128C300.795 80.4 306.995 82.3333 310.728 86.2C314.595 89.9333 316.528 94.8667 316.528 101C316.528 107.133 314.595 112.133 310.728 116C306.995 119.733 300.795 121.6 292.128 121.6H268.528ZM351.461 126.4C351.461 116.8 353.261 107.733 356.861 99.2C360.594 90.6667 365.594 83.2667 371.861 77C378.261 70.6 385.728 65.6 394.261 62C402.794 58.2667 411.861 56.4 421.461 56.4C431.061 56.4 440.128 58.2667 448.661 62C457.194 65.6 464.594 70.6 470.861 77C477.261 83.2667 482.261 90.6667 485.861 99.2C489.594 107.733 491.461 116.8 491.461 126.4C491.461 136 489.594 145.067 485.861 153.6C482.261 162.133 477.261 169.6 470.861 176C464.594 182.267 457.194 187.267 448.661 191C440.128 194.6 431.061 196.4 421.461 196.4C411.861 196.4 402.794 194.6 394.261 191C385.728 187.267 378.261 182.267 371.861 176C365.594 169.6 360.594 162.133 356.861 153.6C353.261 145.067 351.461 136 351.461 126.4ZM370.261 126.4C370.261 133.467 371.594 140.133 374.261 146.4C376.928 152.533 380.594 157.933 385.261 162.6C389.928 167.267 395.328 170.933 401.461 173.6C407.728 176.267 414.394 177.6 421.461 177.6C428.528 177.6 435.128 176.267 441.261 173.6C447.528 170.933 452.994 167.267 457.661 162.6C462.328 157.933 465.994 152.533 468.661 146.4C471.328 140.133 472.661 133.467 472.661 126.4C472.661 119.333 471.328 112.733 468.661 106.6C465.994 100.333 462.328 94.8667 457.661 90.2C452.994 85.5333 447.528 81.8667 441.261 79.2C435.128 76.5333 428.528 75.2 421.461 75.2C414.394 75.2 407.728 76.5333 401.461 79.2C395.328 81.8667 389.928 85.5333 385.261 90.2C380.594 94.8667 376.928 100.333 374.261 106.6C371.594 112.733 370.261 119.333 370.261 126.4ZM393.461 126.4C393.461 130.267 394.194 133.933 395.661 137.4C397.128 140.733 399.128 143.667 401.661 146.2C404.194 148.733 407.128 150.733 410.461 152.2C413.928 153.667 417.594 154.4 421.461 154.4C425.328 154.4 428.928 153.667 432.261 152.2C435.728 150.733 438.728 148.733 441.261 146.2C443.794 143.667 445.794 140.733 447.261 137.4C448.728 133.933 449.461 130.267 449.461 126.4C449.461 122.533 448.728 118.933 447.261 115.6C445.794 112.133 443.794 109.133 441.261 106.6C438.728 104.067 435.728 102.067 432.261 100.6C428.928 99.1333 425.328 98.4 421.461 98.4C417.594 98.4 413.928 99.1333 410.461 100.6C407.128 102.067 404.194 104.067 401.661 106.6C399.128 109.133 397.128 112.133 395.661 115.6C394.194 118.933 393.461 122.533 393.461 126.4ZM421.461 172.4C415.061 172.4 409.061 171.2 403.461 168.8C397.994 166.4 393.128 163.133 388.861 159C384.728 154.733 381.461 149.867 379.061 144.4C376.661 138.8 375.461 132.8 375.461 126.4C375.461 120 376.661 114.067 379.061 108.6C381.461 103 384.728 98.1333 388.861 94C393.128 89.7333 397.994 86.4 403.461 84C409.061 81.6 415.061 80.4 421.461 80.4C427.861 80.4 433.794 81.6 439.261 84C444.861 86.4 449.728 89.7333 453.861 94C458.128 98.1333 461.461 103 463.861 108.6C466.261 114.067 467.461 120 467.461 126.4C467.461 132.8 466.261 138.8 463.861 144.4C461.461 149.867 458.128 154.733 453.861 159C449.728 163.133 444.861 166.4 439.261 168.8C433.794 171.2 427.861 172.4 421.461 172.4ZM499.508 126.4C499.508 116.8 501.308 107.733 504.908 99.2C508.641 90.6667 513.641 83.2667 519.908 77C526.308 70.6 533.774 65.6 542.308 62C550.841 58.2667 559.908 56.4 569.508 56.4C579.108 56.4 588.174 58.2667 596.708 62C605.241 65.6 612.641 70.6 618.908 77C625.308 83.2667 630.308 90.6667 633.908 99.2C637.641 107.733 639.508 116.8 639.508 126.4C639.508 136 637.641 145.067 633.908 153.6C630.308 162.133 625.308 169.6 618.908 176C612.641 182.267 605.241 187.267 596.708 191C588.174 194.6 579.108 196.4 569.508 196.4C559.908 196.4 550.841 194.6 542.308 191C533.774 187.267 526.308 182.267 519.908 176C513.641 169.6 508.641 162.133 504.908 153.6C501.308 145.067 499.508 136 499.508 126.4ZM518.308 126.4C518.308 133.467 519.641 140.133 522.308 146.4C524.974 152.533 528.641 157.933 533.308 162.6C537.974 167.267 543.374 170.933 549.508 173.6C555.774 176.267 562.441 177.6 569.508 177.6C576.574 177.6 583.174 176.267 589.308 173.6C595.574 170.933 601.041 167.267 605.708 162.6C610.374 157.933 614.041 152.533 616.708 146.4C619.374 140.133 620.708 133.467 620.708 126.4C620.708 119.333 619.374 112.733 616.708 106.6C614.041 100.333 610.374 94.8667 605.708 90.2C601.041 85.5333 595.574 81.8667 589.308 79.2C583.174 76.5333 576.574 75.2 569.508 75.2C562.441 75.2 555.774 76.5333 549.508 79.2C543.374 81.8667 537.974 85.5333 533.308 90.2C528.641 94.8667 524.974 100.333 522.308 106.6C519.641 112.733 518.308 119.333 518.308 126.4ZM541.508 126.4C541.508 130.267 542.241 133.933 543.708 137.4C545.174 140.733 547.174 143.667 549.708 146.2C552.241 148.733 555.174 150.733 558.508 152.2C561.974 153.667 565.641 154.4 569.508 154.4C573.374 154.4 576.974 153.667 580.308 152.2C583.774 150.733 586.774 148.733 589.308 146.2C591.841 143.667 593.841 140.733 595.308 137.4C596.774 133.933 597.508 130.267 597.508 126.4C597.508 122.533 596.774 118.933 595.308 115.6C593.841 112.133 591.841 109.133 589.308 106.6C586.774 104.067 583.774 102.067 580.308 100.6C576.974 99.1333 573.374 98.4 569.508 98.4C565.641 98.4 561.974 99.1333 558.508 100.6C555.174 102.067 552.241 104.067 549.708 106.6C547.174 109.133 545.174 112.133 543.708 115.6C542.241 118.933 541.508 122.533 541.508 126.4ZM569.508 172.4C563.108 172.4 557.108 171.2 551.508 168.8C546.041 166.4 541.174 163.133 536.908 159C532.774 154.733 529.508 149.867 527.108 144.4C524.708 138.8 523.508 132.8 523.508 126.4C523.508 120 524.708 114.067 527.108 108.6C529.508 103 532.774 98.1333 536.908 94C541.174 89.7333 546.041 86.4 551.508 84C557.108 81.6 563.108 80.4 569.508 80.4C575.908 80.4 581.841 81.6 587.308 84C592.908 86.4 597.774 89.7333 601.908 94C606.174 98.1333 609.508 103 611.908 108.6C614.308 114.067 615.508 120 615.508 126.4C615.508 132.8 614.308 138.8 611.908 144.4C609.508 149.867 606.174 154.733 601.908 159C597.774 163.133 592.908 166.4 587.308 168.8C581.841 171.2 575.908 172.4 569.508 172.4ZM650.555 59.6H685.555L722.355 111V59.6H764.155V193H728.955L692.355 141.8V193H650.555V59.6ZM674.355 177V84.6L740.355 177H745.555V75.6H740.355V168L674.355 75.6H669.155V177H674.355ZM813.494 94.6H776.694L790.294 59.6H875.694L829.294 158H873.094L859.694 193H767.094L813.494 94.6ZM849.294 177L851.294 172.2H802.694L848.294 75.6H800.694L798.894 80.4H840.094L794.494 177H849.294Z" fill="white"/>
</svg>
